<svg xmlns="http://www.w3.org/2000/svg" width="16.732" height="16.732" viewBox="0 0 16.732 16.732">
  <path id="Icon_awesome-user-alt" data-name="Icon awesome-user-alt" d="M7.866,8.849A4.425,4.425,0,1,0,3.441,4.425,4.426,4.426,0,0,0,7.866,8.849Zm3.933.983H10.106a5.349,5.349,0,0,1-4.48,0H3.933A3.933,3.933,0,0,0,0,13.766v.492a1.475,1.475,0,0,0,1.475,1.475H14.258a1.475,1.475,0,0,0,1.475-1.475v-.492A3.933,3.933,0,0,0,11.8,9.833Z" transform="translate(0.5 0.5)" fill="none" stroke="#174f73" stroke-width="1"/>
</svg>
