<svg xmlns="http://www.w3.org/2000/svg" width="13.113" height="14.459" viewBox="0 0 13.113 14.459">
  <g id="Icon_feather-share-2" data-name="Icon feather-share-2" transform="translate(0.5 0.5)">
    <path id="Path_20079" data-name="Path 20079" d="M26.538,5.019A2.019,2.019,0,1,1,24.519,3,2.019,2.019,0,0,1,26.538,5.019Z" transform="translate(-14.425 -3)" fill="none" stroke="#174f73" stroke-linecap="round" stroke-linejoin="round" stroke-width="1"/>
    <path id="Path_20080" data-name="Path 20080" d="M8.538,15.519A2.019,2.019,0,1,1,6.519,13.5,2.019,2.019,0,0,1,8.538,15.519Z" transform="translate(-4.5 -8.789)" fill="none" stroke="#174f73" stroke-linecap="round" stroke-linejoin="round" stroke-width="1"/>
    <path id="Path_20081" data-name="Path 20081" d="M26.538,26.019A2.019,2.019,0,1,1,24.519,24,2.019,2.019,0,0,1,26.538,26.019Z" transform="translate(-14.425 -14.579)" fill="none" stroke="#174f73" stroke-linecap="round" stroke-linejoin="round" stroke-width="1"/>
    <path id="Path_20082" data-name="Path 20082" d="M12.885,20.265l4.6,2.678" transform="translate(-9.123 -12.52)" fill="none" stroke="#174f73" stroke-linecap="round" stroke-linejoin="round" stroke-width="1"/>
    <path id="Path_20083" data-name="Path 20083" d="M17.474,9.765l-4.589,2.678" transform="translate(-9.123 -6.73)" fill="none" stroke="#174f73" stroke-linecap="round" stroke-linejoin="round" stroke-width="1"/>
  </g>
</svg>
