<svg xmlns="http://www.w3.org/2000/svg" width="10.547" height="9.844" viewBox="0 0 10.547 9.844">
  <path id="Icon_awesome-heading" data-name="Icon awesome-heading" d="M10.617,3.656v7.031h.7a.352.352,0,0,1,.352.352v.7a.352.352,0,0,1-.352.352H7.8a.352.352,0,0,1-.352-.352v-.7a.352.352,0,0,1,.352-.352h.7V7.875H4.289v2.813h.7a.352.352,0,0,1,.352.352v.7a.352.352,0,0,1-.352.352H1.477a.352.352,0,0,1-.352-.352v-.7a.352.352,0,0,1,.352-.352h.7V3.656h-.7A.352.352,0,0,1,1.125,3.3V2.6a.352.352,0,0,1,.352-.352H4.992a.352.352,0,0,1,.352.352v.7a.352.352,0,0,1-.352.352h-.7V6.469H8.508V3.656H7.8A.352.352,0,0,1,7.453,3.3V2.6A.352.352,0,0,1,7.8,2.25H11.32a.352.352,0,0,1,.352.352v.7a.352.352,0,0,1-.352.352Z" transform="translate(-1.125 -2.25)" fill="#174f73"/>
</svg>
