<svg id="Icon_ionic-md-notifications-outline" data-name="Icon ionic-md-notifications-outline" xmlns="http://www.w3.org/2000/svg" width="13.165" height="15" viewBox="0 0 13.165 15">
  <path id="Icon_ionic-md-notifications-outline-2" data-name="Icon ionic-md-notifications-outline" d="M12.245,5.988a5.586,5.586,0,0,1,.894.162,3.7,3.7,0,0,1,2.905,3.6v4.6l.349.338.291.282H7.731l.291-.282.349-.338V9.75a3.7,3.7,0,0,1,2.905-3.6,6.841,6.841,0,0,1,.894-.162m.037-2.613A1.123,1.123,0,0,0,11.046,4.5v.525A4.9,4.9,0,0,0,7.174,9.75v4.125l-1.549,1.5v.75H18.79v-.75l-1.549-1.5V9.75a4.9,4.9,0,0,0-3.872-4.725V4.5a1.123,1.123,0,0,0-1.162-1.125Zm1.549,13.5h-3.1a1.55,1.55,0,0,0,3.1,0Z" transform="translate(-5.625 -3.375)" fill="#fff"/>
</svg>
