<svg xmlns="http://www.w3.org/2000/svg" width="12.03" height="14.894" viewBox="0 0 12.03 14.894">
  <path id="Icon_ionic-md-copy" data-name="Icon ionic-md-copy" d="M13.635,3.375H9.356a1.432,1.432,0,0,0-1.45,1.414v.3H7.638a1.432,1.432,0,0,0-1.45,1.414V16.819a1.462,1.462,0,0,0,1.45,1.45h7.447a1.432,1.432,0,0,0,1.414-1.45v-.269h.3a1.432,1.432,0,0,0,1.414-1.45V7.958Zm0,1.6,2.986,2.986H13.635Zm1.719,11.847a.289.289,0,0,1-.269.3H7.638a.319.319,0,0,1-.3-.3V6.508a.289.289,0,0,1,.3-.269h.269v9.148A1.016,1.016,0,0,0,9.07,16.551h6.284ZM17.072,15.1a.289.289,0,0,1-.269.3H9.356a.319.319,0,0,1-.3-.3V4.789a.289.289,0,0,1,.3-.269h3.133V9.1h4.583Z" transform="translate(-6.188 -3.375)" fill="#174f73"/>
</svg>
