<svg xmlns="http://www.w3.org/2000/svg" width="14.776" height="14.771" viewBox="0 0 14.776 14.771">
  <g id="Icon_ionic-ios-images" data-name="Icon ionic-ios-images" transform="translate(-2.25 -2.249)">
    <path id="Path_24147" data-name="Path 24147" d="M14.682,13.918a.156.156,0,0,0-.254-.023l-3.03,4.03a.154.154,0,0,0,.106.254l5.312.462a.157.157,0,0,0,.148-.234Z" transform="translate(-4.838 -6.155)" fill="#174f73"/>
    <path id="Path_24148" data-name="Path 24148" d="M24.563,18.481a.156.156,0,0,0-.254-.023l-.818.828a.154.154,0,0,0-.016.178l.838,1.632a.154.154,0,0,0,.122.076l1.481.129a.157.157,0,0,0,.148-.234Z" transform="translate(-11.26 -8.579)" fill="#174f73"/>
    <path id="Path_24149" data-name="Path 24149" d="M25.684,14.012a.78.78,0,1,0-.782-.927A.786.786,0,0,0,25.684,14.012Z" transform="translate(-12.022 -5.418)" fill="#174f73"/>
    <path id="Path_24150" data-name="Path 24150" d="M16.205,5.458l-2.17-.188-.2-2.209a.891.891,0,0,0-.973-.808l-9.8.884a.894.894,0,0,0-.811.969l.884,9.777a.891.891,0,0,0,.973.808l.518-.046-.049.551a.892.892,0,0,0,.814.966l9.8.854a.894.894,0,0,0,.969-.811l.857-9.781A.9.9,0,0,0,16.205,5.458ZM4.083,11.11a.227.227,0,0,1-.244-.2l-.594-6.6a.222.222,0,0,1,.2-.241l9.207-.828a.227.227,0,0,1,.244.2l.158,1.741L6.4,4.6a.894.894,0,0,0-.969.811l-.491,5.616ZM16.027,6.638l-.577,6.6a.225.225,0,0,1-.241.2l-.613-.053L6,12.637a.225.225,0,0,1-.2-.241l.125-1.448L6.372,5.8a.225.225,0,0,1,.241-.2l6.529.57.979.086,1.7.148A.215.215,0,0,1,16.027,6.638Z" transform="translate(0 0)" fill="#174f73"/>
  </g>
</svg>
