<svg xmlns="http://www.w3.org/2000/svg" width="12.311" height="9.849" viewBox="0 0 12.311 9.849">
  <path id="Icon_awesome-project-diagram" data-name="Icon awesome-project-diagram" d="M7.386,6.155H4.924a.616.616,0,0,0-.616.616V9.233a.616.616,0,0,0,.616.616H7.386A.616.616,0,0,0,8,9.233V6.771A.616.616,0,0,0,7.386,6.155ZM3.693.616A.616.616,0,0,0,3.078,0H.616A.616.616,0,0,0,0,.616V3.078a.616.616,0,0,0,.616.616H2.457L3.864,6.156a1.227,1.227,0,0,1,1.06-.616H4.93L3.693,3.376V2.462H8V1.231H3.693ZM11.7,0H9.233a.616.616,0,0,0-.616.616V3.078a.616.616,0,0,0,.616.616H11.7a.616.616,0,0,0,.616-.616V.616A.616.616,0,0,0,11.7,0Z" fill="#174f73"/>
</svg>
