<svg xmlns="http://www.w3.org/2000/svg" width="15.587" height="16.624" viewBox="0 0 15.587 16.624">
  <g id="Icon_feather-codesandbox" data-name="Icon feather-codesandbox" transform="translate(1.025 0.774)">
    <path id="Path_20110" data-name="Path 20110" d="M18.038,13.531V7.514a1.5,1.5,0,0,0-.752-1.3L12.021,3.2a1.5,1.5,0,0,0-1.5,0L5.252,6.213a1.5,1.5,0,0,0-.752,1.3v6.017a1.5,1.5,0,0,0,.752,1.3l5.265,3.008a1.5,1.5,0,0,0,1.5,0l5.265-3.008a1.5,1.5,0,0,0,.752-1.3Z" transform="translate(-4.5 -3.003)" fill="none" stroke="#174f73" stroke-linecap="round" stroke-linejoin="round" stroke-width="1.5"/>
    <path id="Path_20111" data-name="Path 20111" d="M11.25,6.315,14.634,8.27l3.384-1.955" transform="translate(-7.866 -4.654)" fill="none" stroke="#174f73" stroke-linecap="round" stroke-linejoin="round" stroke-width="1.5"/>
    <path id="Path_20112" data-name="Path 20112" d="M7.884,23.859v-3.9L4.5,18" transform="translate(-4.5 -10.481)" fill="none" stroke="#174f73" stroke-linecap="round" stroke-linejoin="round" stroke-width="1.5"/>
    <path id="Path_20113" data-name="Path 20113" d="M28.134,18,24.75,19.955v3.9" transform="translate(-14.597 -10.481)" fill="none" stroke="#174f73" stroke-linecap="round" stroke-linejoin="round" stroke-width="1.5"/>
    <path id="Path_20114" data-name="Path 20114" d="M4.905,10.44l6.566,3.8,6.566-3.8" transform="translate(-4.702 -6.711)" fill="none" stroke="#174f73" stroke-linecap="round" stroke-linejoin="round" stroke-width="1.5"/>
    <path id="Path_20115" data-name="Path 20115" d="M18,25.581V18" transform="translate(-11.231 -10.481)" fill="none" stroke="#174f73" stroke-linecap="round" stroke-linejoin="round" stroke-width="1.5"/>
  </g>
</svg>
