<svg xmlns="http://www.w3.org/2000/svg" width="18.476" height="14.627" viewBox="0 0 18.476 14.627">
  <g id="Icon_ionic-ios-list" data-name="Icon ionic-ios-list" transform="translate(-4.5 -7.313)">
    <path id="Path_73425" data-name="Path 73425" d="M7.194,17.378a1.347,1.347,0,1,1-1.347-1.347A1.347,1.347,0,0,1,7.194,17.378Z" transform="translate(0 -2.752)" fill="#174f73"/>
    <path id="Path_73426" data-name="Path 73426" d="M7.194,8.66A1.347,1.347,0,1,1,5.847,7.313,1.347,1.347,0,0,1,7.194,8.66Z" fill="#174f73"/>
    <path id="Path_73427" data-name="Path 73427" d="M7.194,26.1A1.347,1.347,0,1,1,5.847,24.75,1.347,1.347,0,0,1,7.194,26.1Z" transform="translate(0 -5.505)" fill="#174f73"/>
    <path id="Path_73428" data-name="Path 73428" d="M24.681,16.875H13.11a.77.77,0,0,0,0,1.54H24.681a.77.77,0,0,0,0-1.54Z" transform="translate(-2.475 -3.019)" fill="#174f73"/>
    <path id="Path_73429" data-name="Path 73429" d="M24.681,25.594H13.11a.77.77,0,0,0,0,1.54H24.681a.77.77,0,0,0,0-1.54Z" transform="translate(-2.475 -5.771)" fill="#174f73"/>
    <path id="Path_73430" data-name="Path 73430" d="M13.11,9.7H24.681a.77.77,0,0,0,0-1.54H13.11a.77.77,0,1,0,0,1.54Z" transform="translate(-2.475 -0.266)" fill="#174f73"/>
  </g>
</svg>
