<svg id="Icon_ionic-ios-chatbubbles" data-name="Icon ionic-ios-chatbubbles" xmlns="http://www.w3.org/2000/svg" width="37.495" height="37.495" viewBox="0 0 37.495 37.495">
  <path id="Path_24139" data-name="Path 24139" d="M36.542,27.945a2.184,2.184,0,0,1,.3-1.1,3.034,3.034,0,0,1,.189-.279,14.6,14.6,0,0,0,2.488-8.139c.027-8.31-6.985-15.052-15.656-15.052A15.548,15.548,0,0,0,8.511,15.354a14.484,14.484,0,0,0-.333,3.083A15.289,15.289,0,0,0,23.59,33.677a18.562,18.562,0,0,0,4.254-.694c1.018-.279,2.028-.649,2.289-.748a2.383,2.383,0,0,1,.838-.153,2.343,2.343,0,0,1,.91.18l5.11,1.812a1.219,1.219,0,0,0,.352.09.717.717,0,0,0,.721-.721,1.158,1.158,0,0,0-.045-.243Z" transform="translate(-2.021 -3.375)" fill="#14b3a7"/>
  <path id="Path_24140" data-name="Path 24140" d="M27.756,31.74c-.324.09-.739.189-1.19.288a16.635,16.635,0,0,1-3.064.406A15.289,15.289,0,0,1,8.089,17.193a17.04,17.04,0,0,1,.135-1.929c.054-.388.117-.775.207-1.154.09-.406.2-.811.315-1.208l-.721.64A13.413,13.413,0,0,0,3.375,23.628,13.264,13.264,0,0,0,5.61,31.019c.207.315.324.559.288.721s-1.073,5.588-1.073,5.588a.723.723,0,0,0,.243.694.734.734,0,0,0,.46.162.647.647,0,0,0,.261-.054l5.056-1.992a1.408,1.408,0,0,1,.514-.1,1.422,1.422,0,0,1,.568.117A15.169,15.169,0,0,0,17.4,37.238a14.156,14.156,0,0,0,10.825-4.966s.288-.4.622-.865C28.513,31.524,28.134,31.641,27.756,31.74Z" transform="translate(-3.375 -0.689)" fill="#174f73"/>
</svg>
